<svg xmlns="http://www.w3.org/2000/svg" xmlns:xlink="http://www.w3.org/1999/xlink" width="500" zoomAndPan="magnify" viewBox="0 0 375 374.999991" height="500" preserveAspectRatio="xMidYMid meet" version="1.0"><defs><filter x="0%" y="0%" width="100%" height="100%" id="id1"><feColorMatrix values="0 0 0 0 1 0 0 0 0 1 0 0 0 0 1 0 0 0 1 0" color-interpolation-filters="sRGB"/></filter><mask id="id2"><g filter="url(#id1)"><rect x="-37.5" width="450" fill="#000000" y="-37.499999" height="449.999989" fill-opacity="0.0863"/></g></mask><clipPath id="id3"><path d="M 0 0 L 375 0 L 375 375 L 0 375 Z M 0 0 " clip-rule="nonzero"/></clipPath><clipPath id="id4"><rect x="0" width="375" y="0" height="375"/></clipPath><clipPath id="id5"><path d="M 313 207.328125 L 326.765625 207.328125 L 326.765625 262 L 313 262 Z M 313 207.328125 " clip-rule="nonzero"/></clipPath><clipPath id="id6"><path d="M 279.515625 248 L 293 248 L 293 262 L 279.515625 262 Z M 279.515625 248 " clip-rule="nonzero"/></clipPath><clipPath id="id7"><path d="M 107.296875 218.453125 L 147.046875 218.453125 L 147.046875 264.203125 L 107.296875 264.203125 Z M 107.296875 218.453125 " clip-rule="nonzero"/></clipPath><clipPath id="id8"><path d="M 151 235 L 179 235 L 179 262 L 151 262 Z M 151 235 " clip-rule="nonzero"/></clipPath><clipPath id="id9"><path d="M 142.671875 245.035156 L 160.871094 226.117188 L 187.355469 251.59375 L 169.15625 270.511719 Z M 142.671875 245.035156 " clip-rule="nonzero"/></clipPath><clipPath id="id10"><path d="M 142.671875 245.035156 L 160.871094 226.117188 L 187.355469 251.59375 L 169.15625 270.511719 Z M 142.671875 245.035156 " clip-rule="nonzero"/></clipPath><clipPath id="id11"><path d="M 212.429688 234.125 L 237.179688 234.125 L 237.179688 262.625 L 212.429688 262.625 Z M 212.429688 234.125 " clip-rule="nonzero"/></clipPath><clipPath id="id12"><path d="M 240 236 L 266 236 L 266 263 L 240 263 Z M 240 236 " clip-rule="nonzero"/></clipPath><clipPath id="id13"><path d="M 231.703125 246.148438 L 249.734375 228.117188 L 274.660156 253.042969 L 256.628906 271.074219 Z M 231.703125 246.148438 " clip-rule="nonzero"/></clipPath><clipPath id="id14"><path d="M 231.703125 246.148438 L 249.734375 228.117188 L 274.660156 253.042969 L 256.628906 271.074219 Z M 231.703125 246.148438 " clip-rule="nonzero"/></clipPath><clipPath id="id15"><path d="M 178.882812 234.125 L 212.457031 234.125 L 212.457031 262.269531 L 178.882812 262.269531 Z M 178.882812 234.125 " clip-rule="nonzero"/></clipPath><clipPath id="id16"><path d="M 178.882812 234.707031 L 192.328125 234.707031 L 192.328125 240.035156 C 192.925781 238.261719 193.839844 236.832031 195.0625 235.753906 C 196.292969 234.667969 198.15625 234.125 200.644531 234.125 C 206.410156 234.125 209.296875 237.347656 209.296875 243.789062 L 209.296875 261.21875 L 212.417969 261.21875 L 212.417969 262.261719 L 196.628906 262.261719 L 196.628906 261.21875 L 198.917969 261.21875 L 198.917969 242.40625 C 198.917969 240.089844 198.773438 238.597656 198.472656 237.917969 C 198.175781 237.238281 197.632812 236.90625 196.855469 236.90625 C 195.660156 236.90625 194.609375 237.71875 193.707031 239.339844 C 192.792969 240.957031 192.339844 242.929688 192.339844 245.238281 L 192.339844 261.21875 L 194.738281 261.21875 L 194.738281 262.261719 L 178.882812 262.261719 L 178.882812 261.21875 L 181.949219 261.21875 L 181.949219 235.746094 L 178.882812 235.746094 Z M 178.882812 234.707031 " clip-rule="nonzero"/></clipPath><clipPath id="id17"><path d="M 98.773438 182 L 134.023438 182 L 134.023438 215.378906 L 98.773438 215.378906 Z M 98.773438 182 " clip-rule="nonzero"/></clipPath><clipPath id="id18"><path d="M 98.773438 180.878906 L 134.023438 180.878906 L 134.023438 214 L 98.773438 214 Z M 98.773438 180.878906 " clip-rule="nonzero"/></clipPath><clipPath id="id19"><path d="M 142.671875 182.839844 L 178.671875 182.839844 L 178.671875 213.589844 L 142.671875 213.589844 Z M 142.671875 182.839844 " clip-rule="nonzero"/></clipPath></defs><rect x="-37.5" width="450" fill="#ffffff" y="-37.499999" height="449.999989" fill-opacity="1"/><rect x="-37.5" width="450" fill="#ffffff" y="-37.499999" height="449.999989" fill-opacity="1"/><rect x="-37.5" width="450" fill="#ffffff" y="-37.499999" height="449.999989" fill-opacity="1"/><g mask="url(#id2)"><g transform="matrix(1, 0, 0, 1, 0, 0)"><g clip-path="url(#id4)"><g clip-path="url(#id3)"><rect x="-82.5" width="540" fill="#5271ff" height="539.999987" y="-82.499998" fill-opacity="1"/></g></g></g></g><g clip-path="url(#id5)"><path fill="#34a853" d="M 313.691406 213.957031 L 313.691406 254.828125 C 313.691406 259.402344 316.863281 261.949219 320.21875 261.949219 C 323.324219 261.949219 326.742188 259.785156 326.742188 254.828125 L 326.742188 214.265625 C 326.742188 210.074219 323.636719 207.457031 320.21875 207.457031 C 316.800781 207.457031 313.691406 210.34375 313.691406 213.957031 Z M 313.691406 213.957031 " fill-opacity="1" fill-rule="nonzero"/></g><path fill="#4285f4" d="M 296.605469 234.703125 L 296.605469 254.828125 C 296.605469 259.402344 299.773438 261.949219 303.128906 261.949219 C 306.234375 261.949219 309.652344 259.785156 309.652344 254.828125 L 309.652344 235.011719 C 309.652344 230.820312 306.546875 228.199219 303.128906 228.199219 C 299.710938 228.199219 296.605469 231.089844 296.605469 234.703125 Z M 296.605469 234.703125 " fill-opacity="1" fill-rule="nonzero"/><g clip-path="url(#id6)"><path fill="#4285f4" d="M 292.566406 255.449219 C 292.566406 255.875 292.523438 256.296875 292.441406 256.71875 C 292.355469 257.136719 292.234375 257.542969 292.070312 257.9375 C 291.90625 258.332031 291.703125 258.707031 291.464844 259.0625 C 291.226562 259.417969 290.957031 259.746094 290.652344 260.046875 C 290.351562 260.347656 290.023438 260.617188 289.664062 260.855469 C 289.308594 261.09375 288.933594 261.292969 288.539062 261.457031 C 288.140625 261.621094 287.734375 261.742188 287.3125 261.824219 C 286.894531 261.910156 286.46875 261.949219 286.039062 261.949219 C 285.613281 261.949219 285.1875 261.910156 284.765625 261.824219 C 284.347656 261.742188 283.9375 261.621094 283.542969 261.457031 C 283.148438 261.292969 282.773438 261.09375 282.414062 260.855469 C 282.058594 260.617188 281.730469 260.347656 281.425781 260.046875 C 281.125 259.746094 280.851562 259.417969 280.617188 259.0625 C 280.378906 258.707031 280.175781 258.332031 280.011719 257.9375 C 279.847656 257.542969 279.726562 257.136719 279.640625 256.71875 C 279.558594 256.296875 279.515625 255.875 279.515625 255.449219 C 279.515625 255.023438 279.558594 254.597656 279.640625 254.179688 C 279.726562 253.761719 279.847656 253.355469 280.011719 252.960938 C 280.175781 252.566406 280.378906 252.191406 280.617188 251.835938 C 280.851562 251.480469 281.125 251.152344 281.425781 250.851562 C 281.730469 250.550781 282.058594 250.28125 282.414062 250.042969 C 282.773438 249.804688 283.148438 249.605469 283.542969 249.441406 C 283.9375 249.277344 284.347656 249.15625 284.765625 249.070312 C 285.1875 248.988281 285.613281 248.945312 286.039062 248.945312 C 286.46875 248.945312 286.894531 248.988281 287.3125 249.070312 C 287.734375 249.15625 288.140625 249.277344 288.539062 249.441406 C 288.933594 249.605469 289.308594 249.804688 289.664062 250.042969 C 290.023438 250.28125 290.351562 250.550781 290.652344 250.851562 C 290.957031 251.152344 291.226562 251.480469 291.464844 251.835938 C 291.703125 252.191406 291.90625 252.566406 292.070312 252.960938 C 292.234375 253.355469 292.355469 253.761719 292.441406 254.179688 C 292.523438 254.597656 292.566406 255.023438 292.566406 255.449219 Z M 292.566406 255.449219 " fill-opacity="1" fill-rule="nonzero"/></g><g clip-path="url(#id7)"><path fill="#4285f4" d="M 147.03125 248.992188 C 147.03125 238.253906 136.90625 236.222656 130.199219 234.851562 C 128.039062 234.421875 124.421875 233.683594 124.421875 232.921875 C 124.421875 231.933594 126.507812 231.601562 128.492188 231.601562 C 131.882812 231.601562 135.527344 232.59375 139.320312 234.523438 L 140.523438 235.132812 L 145.597656 222.765625 L 144.621094 222.207031 C 140.425781 219.824219 134.570312 218.453125 128.59375 218.453125 C 122.335938 218.453125 117.136719 219.949219 113.542969 222.816406 C 110.152344 225.507812 108.292969 229.34375 108.292969 233.660156 C 108.292969 244.449219 118.34375 246.554688 125 247.953125 C 127.359375 248.460938 130.902344 249.195312 130.902344 250.058594 C 130.902344 250.644531 129.320312 251.023438 126.832031 251.023438 C 122.613281 251.023438 117.6875 249.652344 113.972656 247.417969 L 112.765625 246.683594 L 107.3125 259.175781 L 108.242188 259.757812 C 112.664062 262.5 119.722656 264.203125 126.707031 264.203125 C 132.9375 264.203125 138.164062 262.679688 141.757812 259.785156 C 145.148438 257.09375 147.03125 253.257812 147.03125 248.992188 Z M 147.03125 248.992188 " fill-opacity="1" fill-rule="nonzero"/></g><g clip-path="url(#id8)"><g clip-path="url(#id9)"><g clip-path="url(#id10)"><path fill="#ff1616" d="M 165.230469 261.460938 C 161.644531 261.542969 158.589844 260.34375 156.070312 257.867188 C 153.464844 255.359375 152.148438 252.300781 152.089844 248.605469 L 151.890625 235.472656 L 164.796875 235.167969 C 168.410156 235.113281 171.464844 236.308594 173.988281 238.789062 C 176.5625 241.324219 177.878906 244.382812 177.9375 248.023438 L 177.957031 251.308594 L 159.480469 251.742188 C 159.761719 252.230469 160.128906 252.691406 160.546875 253.097656 C 161.835938 254.335938 163.363281 254.933594 165.128906 254.894531 L 171.472656 254.742188 C 175.097656 254.660156 178.082031 257.53125 178.136719 261.15625 Z M 170.605469 244.886719 C 170.292969 244.421875 169.957031 243.988281 169.535156 243.585938 C 168.21875 242.320312 166.691406 241.71875 164.898438 241.734375 L 158.445312 241.886719 L 158.496094 245.195312 L 170.605469 244.886719 " fill-opacity="1" fill-rule="nonzero"/></g></g></g><g clip-path="url(#id11)"><path fill="#34a853" d="M 237.164062 253.152344 C 237.164062 246.460938 230.863281 245.199219 226.6875 244.34375 C 225.34375 244.074219 223.089844 243.617188 223.089844 243.140625 C 223.089844 242.523438 224.390625 242.320312 225.625 242.320312 C 227.734375 242.320312 230.003906 242.9375 232.363281 244.136719 L 233.113281 244.515625 L 236.273438 236.816406 L 235.664062 236.46875 C 233.050781 234.980469 229.410156 234.125 225.6875 234.125 C 221.792969 234.125 218.554688 235.058594 216.320312 236.847656 C 214.207031 238.523438 213.050781 240.910156 213.050781 243.601562 C 213.050781 250.320312 219.304688 251.632812 223.449219 252.503906 C 224.921875 252.820312 227.125 253.277344 227.125 253.816406 C 227.125 254.179688 226.140625 254.417969 224.59375 254.417969 C 221.964844 254.417969 218.898438 253.5625 216.585938 252.171875 L 215.835938 251.714844 L 212.441406 259.496094 L 213.019531 259.859375 C 215.773438 261.566406 220.167969 262.625 224.515625 262.625 C 228.390625 262.625 231.644531 261.675781 233.878906 259.875 C 235.992188 258.199219 237.164062 255.808594 237.164062 253.152344 Z M 237.164062 253.152344 " fill-opacity="1" fill-rule="nonzero"/></g><g clip-path="url(#id12)"><g clip-path="url(#id13)"><g clip-path="url(#id14)"><path fill="#4285f4" d="M 253.0625 262.285156 C 249.601562 262.320312 246.683594 261.125 244.3125 258.699219 C 241.863281 256.25 240.667969 253.28125 240.707031 249.710938 L 240.839844 237.035156 L 253.304688 236.90625 C 256.792969 236.894531 259.707031 238.089844 262.078125 240.515625 C 264.503906 242.992188 265.695312 245.960938 265.660156 249.476562 L 265.597656 252.644531 L 247.757812 252.832031 C 248.019531 253.308594 248.359375 253.757812 248.753906 254.15625 C 249.96875 255.367188 251.425781 255.964844 253.128906 255.945312 L 259.253906 255.882812 C 262.753906 255.84375 265.5625 258.652344 265.527344 262.152344 Z M 258.664062 246.355469 C 258.375 245.90625 258.058594 245.480469 257.664062 245.085938 C 256.425781 243.847656 254.96875 243.25 253.238281 243.242188 L 247.003906 243.308594 L 246.972656 246.503906 L 258.664062 246.355469 " fill-opacity="1" fill-rule="nonzero"/></g></g></g><g clip-path="url(#id15)"><g clip-path="url(#id16)"><path fill="#fbbc04" d="M 178.882812 234.125 L 212.457031 234.125 L 212.457031 262.269531 L 178.882812 262.269531 Z M 178.882812 234.125 " fill-opacity="1" fill-rule="nonzero"/></g></g><g clip-path="url(#id17)"><path fill="#ffffff" d="M 118.074219 215.378906 L 106.894531 215.378906 C 106.191406 215.378906 105.621094 214.808594 105.621094 214.101562 L 105.621094 198.5625 C 105.621094 197.859375 106.191406 197.289062 106.894531 197.289062 L 114.183594 197.289062 C 114.886719 197.289062 115.457031 197.859375 115.457031 198.5625 L 115.457031 204.230469 C 115.457031 204.933594 116.023438 205.507812 116.726562 205.507812 L 118.335938 205.507812 C 122.121094 205.507812 124.296875 203.125 124.296875 198.976562 L 124.296875 198.890625 C 124.296875 195.246094 122.476562 192.804688 119.429688 192.359375 C 119.101562 192.332031 118.773438 192.304688 118.449219 192.285156 L 118.410156 192.285156 C 118.390625 192.285156 118.375 192.285156 118.355469 192.285156 L 118.332031 192.285156 L 117.554688 192.261719 L 109.648438 192.261719 C 105.625 192.261719 101.984375 189.867188 100.375 186.167969 L 98.777344 182.488281 L 118.226562 182.488281 C 123.015625 182.488281 127.039062 184.085938 129.863281 187.101562 C 132.582031 190.011719 134.023438 194.042969 134.023438 198.757812 L 134.023438 198.847656 C 134.023438 203.578125 132.570312 207.652344 129.820312 210.628906 C 126.953125 213.734375 122.890625 215.378906 118.074219 215.378906 " fill-opacity="1" fill-rule="nonzero"/></g><g clip-path="url(#id18)"><path fill="#ff1616" d="M 134.023438 197.148438 L 134.023438 197.234375 C 134.023438 201.964844 132.570312 206.039062 129.820312 209.015625 C 126.953125 212.125 122.890625 213.765625 118.074219 213.765625 L 106.894531 213.765625 C 106.191406 213.765625 105.621094 213.195312 105.621094 212.492188 L 105.621094 196.949219 C 105.621094 196.246094 106.191406 195.675781 106.894531 195.675781 L 114.183594 195.675781 C 114.886719 195.675781 115.457031 196.246094 115.457031 196.949219 L 115.457031 202.621094 C 115.457031 203.324219 116.023438 203.894531 116.726562 203.894531 L 118.335938 203.894531 C 122.121094 203.894531 124.296875 201.515625 124.296875 197.367188 L 124.296875 197.277344 C 124.296875 193.632812 122.476562 191.191406 119.429688 190.75 C 119.101562 190.71875 118.773438 190.695312 118.449219 190.675781 L 118.410156 190.671875 C 118.390625 190.671875 118.375 190.671875 118.355469 190.671875 L 118.332031 190.671875 L 117.554688 190.648438 L 109.648438 190.648438 C 105.625 190.648438 101.984375 188.257812 100.375 184.554688 L 98.777344 180.878906 L 118.226562 180.878906 C 123.015625 180.878906 127.039062 182.472656 129.863281 185.492188 C 132.582031 188.398438 134.023438 192.429688 134.023438 197.148438 " fill-opacity="1" fill-rule="nonzero"/></g><g clip-path="url(#id19)"><path fill="#fbbc04" d="M 160.75 197.433594 L 151.945312 182.871094 L 142.671875 182.871094 L 142.671875 213.5625 L 153.191406 213.5625 L 153.191406 203.066406 L 158.03125 210.949219 L 163.257812 210.949219 L 168.097656 202.691406 L 168.167969 213.5625 L 178.671875 213.5625 L 178.582031 182.871094 L 169.308594 182.871094 Z M 160.75 197.433594 " fill-opacity="1" fill-rule="nonzero"/></g><path fill="#fbbc04" d="M 40.207031 199.726562 L 59.71875 166.300781 C 62.195312 167.761719 74.695312 174.679688 76.710938 175.996094 L 57.199219 209.425781 C 55.066406 212.246094 37.503906 204.003906 40.207031 199.722656 Z M 40.207031 199.726562 " fill-opacity="1" fill-rule="nonzero"/><path fill="#4285f4" d="M 96.261719 199.722656 L 76.753906 166.300781 C 74.027344 161.757812 68.152344 160.109375 63.324219 162.792969 C 58.5 165.472656 57.03125 171.253906 59.757812 176 L 79.269531 209.421875 C 82 213.964844 87.875 215.613281 92.699219 212.929688 C 97.3125 210.25 98.992188 204.265625 96.261719 199.726562 Z M 96.261719 199.722656 " fill-opacity="1" fill-rule="nonzero"/><path fill="#34a853" d="M 58.441406 204.664062 C 58.441406 205.292969 58.378906 205.914062 58.253906 206.53125 C 58.128906 207.144531 57.941406 207.742188 57.695312 208.324219 C 57.449219 208.902344 57.148438 209.453125 56.792969 209.976562 C 56.433594 210.496094 56.027344 210.980469 55.574219 211.421875 C 55.121094 211.867188 54.625 212.261719 54.089844 212.613281 C 53.554688 212.960938 52.992188 213.253906 52.398438 213.496094 C 51.800781 213.734375 51.191406 213.917969 50.558594 214.039062 C 49.929688 214.160156 49.292969 214.222656 48.648438 214.222656 C 48.003906 214.222656 47.367188 214.160156 46.738281 214.039062 C 46.105469 213.917969 45.496094 213.734375 44.902344 213.496094 C 44.304688 213.253906 43.742188 212.960938 43.207031 212.613281 C 42.671875 212.261719 42.179688 211.867188 41.722656 211.421875 C 41.269531 210.980469 40.863281 210.496094 40.503906 209.976562 C 40.148438 209.453125 39.847656 208.902344 39.601562 208.324219 C 39.355469 207.742188 39.167969 207.144531 39.042969 206.53125 C 38.917969 205.914062 38.855469 205.292969 38.855469 204.664062 C 38.855469 204.039062 38.917969 203.417969 39.042969 202.800781 C 39.167969 202.1875 39.355469 201.589844 39.601562 201.007812 C 39.847656 200.429688 40.148438 199.878906 40.503906 199.355469 C 40.863281 198.835938 41.269531 198.351562 41.722656 197.910156 C 42.179688 197.464844 42.671875 197.070312 43.207031 196.71875 C 43.742188 196.371094 44.304688 196.078125 44.902344 195.835938 C 45.496094 195.597656 46.105469 195.414062 46.738281 195.292969 C 47.367188 195.171875 48.003906 195.109375 48.648438 195.109375 C 49.292969 195.109375 49.929688 195.171875 50.558594 195.292969 C 51.191406 195.414062 51.800781 195.597656 52.398438 195.835938 C 52.992188 196.078125 53.554688 196.371094 54.089844 196.71875 C 54.625 197.070312 55.121094 197.464844 55.574219 197.910156 C 56.027344 198.351562 56.433594 198.835938 56.792969 199.355469 C 57.148438 199.878906 57.449219 200.429688 57.695312 201.007812 C 57.941406 201.589844 58.128906 202.1875 58.253906 202.800781 C 58.378906 203.417969 58.441406 204.039062 58.441406 204.664062 Z M 58.441406 204.664062 " fill-opacity="1" fill-rule="nonzero"/></svg>